<svg width="305" height="73" viewBox="0 0 305 73" fill="none" xmlns="http://www.w3.org/2000/svg">
<rect width="305" height="73" fill="black"/>
<path d="M64.1184 23.5683L64.4699 36.7218H60V22.3288H67.2825L77.8295 33.8381L88.3514 22.3288H95.5084V36.7218H91.1891L91.4904 23.5683L79.4618 36.7218H76.1219L64.1184 23.5683ZM102.967 22.3035L113.137 31.5616L122.981 22.3035H127.752L112.534 36.6965H107.763L110.952 33.7875L98.1953 22.3035H102.967ZM127.652 32.6998C127.652 33.9393 128.832 34.9764 131.192 35.8111C133.453 36.5953 136.14 37 139.228 37C142.242 37 144.853 36.5953 147.088 35.8111C149.449 34.9764 150.629 33.9646 150.629 32.7757C150.629 31.1568 148.645 29.9427 144.703 29.1332C145.757 28.9056 146.36 28.7285 146.561 28.6779C148.696 27.919 149.75 27.0337 149.75 25.9713C149.75 24.8078 148.696 23.8465 146.586 23.113C144.477 22.3794 141.966 22 139.053 22C136.315 22 133.879 22.3794 131.795 23.1636C129.711 23.9224 128.656 24.8836 128.656 25.9966H133.603C133.603 25.3137 134.156 24.7825 135.261 24.3777C136.366 23.973 137.772 23.7959 139.479 23.7959C141.112 23.7959 142.443 23.9983 143.447 24.403C144.452 24.8078 144.979 25.339 144.979 25.9966C144.979 26.4266 144.803 26.8061 144.426 27.1096C143.673 27.7673 142.342 28.1973 140.459 28.3491C139.806 28.3997 138.048 28.4249 135.21 28.4249V29.9427H139.228C141.112 29.9427 142.694 30.2209 143.924 30.7521C145.18 31.2833 145.783 31.9663 145.783 32.7504C145.783 33.5599 145.18 34.1669 143.974 34.597C142.769 35.0017 141.137 35.2293 139.128 35.2293C137.244 35.2293 135.688 35.0017 134.457 34.5464C133.252 34.0911 132.649 33.484 132.649 32.7251H127.652V32.6998ZM155.149 36.6965V22.3035H159.82V28.0961H163.11C166.902 28.0961 169.89 28.4249 172.1 29.0573C174.586 29.7909 175.816 30.9039 175.816 32.3963C175.816 33.8887 174.586 35.0017 172.1 35.7352C169.915 36.3676 166.927 36.6965 163.11 36.6965H155.149ZM159.82 29.8668V34.9005H163.11C165.621 34.9005 167.504 34.7487 168.71 34.4199C170.216 34.0405 170.97 33.3575 170.97 32.371C170.97 31.3845 170.242 30.7015 168.76 30.3221C167.58 30.0185 165.696 29.8668 163.11 29.8668H159.82ZM183.626 22.3035V36.6965H178.955V22.3035H183.626ZM194.55 22.3035V36.6965H189.879V22.3035H194.55ZM208.06 36.6965L195.052 29.4368L208.638 22.3035H214.238L200.15 29.4368L213.936 36.6965H208.06ZM239.927 36.6965H245L231.163 22.3035H226.492L212.656 36.6965H217.703L221.596 32.4722H236.01L239.927 36.6965ZM228.853 24.6813L234.403 30.6762H223.178L228.853 24.6813Z" fill="white"/>
<path d="M46.5 41.5V16.5H258.5V41.5H46.5Z" stroke="#E30613" stroke-miterlimit="22.9256"/>
<path d="M116 56.8456H117.319V51.2189C117.319 51.1428 117.319 51.0922 117.345 51.0161C117.371 50.9401 117.397 50.8894 117.474 50.8641C117.552 50.8134 117.681 50.788 117.785 50.7627C117.914 50.7373 118.017 50.7373 118.147 50.7373H124.458V56.8456H125.777V50.7373H130.329C130.536 50.7373 130.743 50.7373 130.976 50.7627C131.209 50.788 131.467 50.8134 131.7 50.8641C131.933 50.9147 132.14 50.9908 132.347 51.0922C132.502 51.1682 132.631 51.2696 132.709 51.3963C132.786 51.4977 132.838 51.6244 132.864 51.7258C132.89 51.8272 132.916 51.9539 132.89 52.0553V56.871H134.209V52.0806C134.209 51.9032 134.183 51.7005 134.131 51.523C134.08 51.3456 133.976 51.1682 133.821 50.9908C133.666 50.8387 133.459 50.6866 133.174 50.5599C132.812 50.4078 132.398 50.3065 131.907 50.2304C131.416 50.1797 130.898 50.129 130.355 50.129H117.862C117.733 50.129 117.578 50.129 117.397 50.1544C117.216 50.1797 117.035 50.2051 116.854 50.2558C116.672 50.3064 116.491 50.3825 116.362 50.5092C116.233 50.6106 116.155 50.7373 116.129 50.8641C116.078 50.9908 116.078 51.1175 116.078 51.2696V56.8456H116ZM147.452 55.7811V50.1544H146.133V55.7051C146.133 55.7558 146.133 55.8318 146.107 55.9078C146.081 55.9839 146.003 56.0599 145.874 56.1359C145.771 56.1866 145.641 56.212 145.486 56.2373C145.331 56.2627 145.176 56.2627 144.995 56.2627H141.27C140.908 56.2627 140.546 56.2627 140.236 56.2373C139.899 56.212 139.589 56.1613 139.33 56.1106C139.046 56.0346 138.813 55.9585 138.632 55.8318C138.528 55.7811 138.451 55.7051 138.373 55.6037C138.296 55.5023 138.218 55.3756 138.166 55.2235C138.115 55.0714 138.089 54.8687 138.089 54.6405V50.1544H136.77V54.8433C136.77 54.9954 136.796 55.1475 136.821 55.3249C136.847 55.5023 136.951 55.6797 137.132 55.8825C137.287 56.0599 137.546 56.2373 137.882 56.4147C138.166 56.5415 138.477 56.6429 138.813 56.7189C139.149 56.7949 139.485 56.8203 139.873 56.8456C140.261 56.871 140.701 56.871 141.167 56.871H144.84C145.098 56.871 145.331 56.871 145.59 56.871C145.822 56.871 146.081 56.8456 146.288 56.8203C146.521 56.7949 146.702 56.7442 146.883 56.6682C147.064 56.5922 147.193 56.4908 147.297 56.4147C147.374 56.3134 147.452 56.212 147.478 56.1106C147.426 55.9585 147.452 55.8571 147.452 55.7811ZM150.892 56.8456H159.427V56.2627H150.892C150.84 56.2627 150.789 56.2627 150.737 56.2627C150.685 56.2627 150.659 56.2373 150.659 56.212C150.659 56.1866 150.685 56.136 150.737 56.1106C150.789 56.0853 150.814 56.0599 150.866 56.0346L158.962 51.2442C159.039 51.1935 159.091 51.1428 159.143 51.0922C159.195 51.0161 159.246 50.9654 159.272 50.8894C159.298 50.8134 159.324 50.7627 159.324 50.712C159.324 50.6359 159.272 50.5346 159.195 50.4585C159.117 50.3825 158.988 50.3064 158.833 50.2558C158.677 50.2051 158.47 50.1797 158.212 50.1797H149.599V50.7627H157.617C157.695 50.7627 157.772 50.7627 157.824 50.788C157.876 50.8134 157.901 50.8387 157.927 50.8894C157.927 50.9401 157.901 50.9654 157.85 50.9908C157.798 51.0161 157.746 51.0415 157.695 51.0668L149.909 55.6037C149.806 55.6544 149.702 55.7051 149.625 55.7811C149.521 55.8571 149.444 55.9332 149.366 56.0092C149.288 56.0853 149.262 56.1866 149.262 56.288C149.262 56.4147 149.314 56.5161 149.444 56.5922C149.547 56.6682 149.702 56.7189 149.857 56.7696C150.038 56.7949 150.22 56.8456 150.401 56.8456C150.556 56.8456 150.737 56.8456 150.892 56.8456ZM162.712 56.8456V55.7558H161.186V56.8456H162.712ZM165.273 48V55.8065C165.273 55.8825 165.273 55.9839 165.299 56.0853C165.325 56.1866 165.376 56.288 165.48 56.3894C165.557 56.4908 165.713 56.5668 165.894 56.6682C166.049 56.7189 166.256 56.7696 166.463 56.7949C166.696 56.8203 166.928 56.8456 167.187 56.8456C167.446 56.8456 167.704 56.8456 167.963 56.8456H170.86C171.222 56.8456 171.61 56.8456 172.024 56.8203C172.438 56.7949 172.851 56.7442 173.265 56.6682C173.679 56.5922 174.067 56.4908 174.429 56.3387C174.791 56.1866 175.128 56.0092 175.438 55.7558C175.722 55.5277 175.904 55.2742 176.033 55.0207C176.162 54.7673 176.24 54.5138 176.266 54.2604C176.292 54.0069 176.317 53.7788 176.317 53.576C176.317 53.3479 176.317 53.0945 176.266 52.8157C176.24 52.5369 176.162 52.2834 176.033 52.0046C175.904 51.7258 175.697 51.4724 175.412 51.2442C175.128 50.9908 174.791 50.8134 174.403 50.6613C174.015 50.5092 173.627 50.4078 173.214 50.3318C172.8 50.2557 172.386 50.2051 171.972 50.1797C171.558 50.1544 171.17 50.129 170.808 50.1544H166.592V48H165.273ZM166.592 50.7373H170.705C171.015 50.7373 171.351 50.7373 171.688 50.7627C172.024 50.788 172.386 50.8134 172.722 50.8894C173.058 50.9654 173.369 51.0415 173.653 51.1682C173.938 51.2949 174.171 51.4724 174.377 51.6751C174.481 51.8018 174.559 51.9286 174.636 52.106C174.714 52.2834 174.765 52.4608 174.791 52.6382C174.843 52.841 174.869 53.0184 174.869 53.2212C174.895 53.3986 174.895 53.6014 174.895 53.7534C174.895 54.0576 174.869 54.3617 174.791 54.6405C174.714 54.9193 174.559 55.1475 174.326 55.3502C174.093 55.553 173.808 55.7304 173.498 55.8571C173.188 55.9839 172.851 56.0599 172.489 56.1106C172.127 56.1613 171.791 56.212 171.455 56.212C171.118 56.2373 170.834 56.2373 170.575 56.2373H167.497C167.42 56.2373 167.316 56.2373 167.239 56.2373C167.135 56.2373 167.032 56.212 166.954 56.212C166.851 56.1866 166.773 56.1613 166.721 56.1359C166.644 56.0853 166.592 56.0092 166.592 55.9585C166.592 55.8825 166.566 55.8065 166.566 55.7304V50.7373H166.592ZM190 50.129H188.577L183.275 56.0092L178.283 50.129H176.861L182.551 56.7949L180.508 59H181.93L190 50.129Z" fill="white"/>
</svg>
