<svg width="60" height="60" viewBox="0 0 60 60" fill="none" xmlns="http://www.w3.org/2000/svg">
<path d="M55.7042 13.3428C55.7907 13.4293 55.9079 13.478 56.0305 13.478C56.1531 13.478 56.2703 13.4293 56.3568 13.3428L59.8648 9.83462C60.0451 9.65433 60.0451 9.36227 59.8648 9.18198L56.3568 5.67379C56.2703 5.58725 56.1531 5.53857 56.0305 5.53857C55.9079 5.53857 55.7907 5.58725 55.7042 5.67379L52.3321 9.04564H33.7313C33.5026 7.18945 31.919 5.74658 30.0018 5.74658C28.0825 5.74658 26.4968 7.18945 26.2678 9.04564H7.66789L4.29582 5.67379C4.12275 5.50071 3.81626 5.50071 3.64318 5.67379L0.135216 9.18198C-0.0450721 9.36227 -0.0450721 9.65433 0.135216 9.83462L3.64318 13.3428C3.72972 13.4293 3.8469 13.478 3.9695 13.478C4.0921 13.478 4.20928 13.4293 4.29582 13.3428L7.67015 9.96871H23.2636C12.6031 12.9423 4.80469 22.6307 4.80469 34.2428V36.9955C3.19261 37.1156 2.0296 36.6752 2.0296 37.4571V42.7974C2.0296 43.0523 2.23603 43.259 2.49114 43.259H8.04132C8.29642 43.259 8.50285 43.0523 8.50285 42.7974V37.4571C8.50285 36.6687 7.3031 37.1128 5.72776 36.9955V34.2428C5.72776 21.8981 14.8437 12.0071 26.317 10.2541C26.664 11.9785 28.193 13.2678 30.0018 13.2678C31.8161 13.2678 33.3489 11.9674 33.6844 10.2555C45.4518 12.0465 54.2709 22.2741 54.2709 34.2428V36.9955C52.6588 37.1156 51.4958 36.6752 51.4958 37.4571V42.7974C51.4958 43.0523 51.7022 43.259 51.9573 43.259H57.5075C57.7626 43.259 57.9691 43.0523 57.9691 42.7974V37.4571C57.9691 36.6687 56.7693 37.1128 55.194 36.9955V34.2428C55.194 22.8395 47.4834 12.9536 36.7708 9.96871H52.3299L55.7042 13.3428ZM7.57978 42.3359H2.95267V37.9186H7.57978V42.3359ZM57.046 42.3359H52.4189V37.9186H57.046V42.3359ZM56.0305 6.65276L58.8858 9.5083L56.0305 12.3638L53.1747 9.5083L56.0305 6.65276ZM3.9695 12.3638L1.11418 9.5083L3.9695 6.65276L6.82527 9.5083L3.9695 12.3638ZM30.0018 12.3447C27.436 12.3447 27.0787 9.49319 27.1654 9.66622C27.1654 9.66617 27.1654 9.66611 27.1654 9.66605C27.1654 9.66603 27.1654 9.66603 27.1654 9.666C26.9837 8.28507 28.2335 6.66966 30.0018 6.66966C31.7373 6.66966 33.0076 8.2387 32.8305 9.69738C32.7354 11.1818 31.4928 12.3447 30.0018 12.3447Z" fill="#188BFA"/>
<path d="M51.7315 44.6439H46.7182C46.7149 44.644 46.7119 44.6437 46.7086 44.6439H43.8435C43.8402 44.644 43.8372 44.6437 43.8339 44.6439H40.9688C40.9655 44.644 40.9625 44.6437 40.9592 44.6439C40.8793 44.6439 15.7874 44.6423 15.7099 44.6423C15.6637 44.6423 15.4753 44.6439 15.5215 44.6439C15.4521 44.6439 15.3831 44.6597 15.3205 44.6899C5.41128 49.4825 5.79495 49.1384 5.79495 49.5865C5.79495 49.7634 5.89636 49.925 6.05547 50.0021C6.10233 50.0248 10.1432 51.9796 10.0953 51.9564C15.6167 54.6126 15.3228 54.5332 15.5215 54.5332C54.0157 54.4894 51.7872 54.6384 52.038 54.4169C54.7505 52.0097 55.0203 47.7036 52.2697 44.9756C52.1944 44.9047 51.9537 44.6439 51.7315 44.6439ZM46.5506 53.6101H44.9249C46.8126 51.2438 46.8151 47.9364 44.9262 45.567H46.5522C48.8678 47.751 48.8797 51.4152 46.5506 53.6101ZM42.0502 53.6101C43.484 51.8127 43.3697 50.1377 43.4671 49.5879C43.4519 49.5021 43.5839 47.4894 42.0515 45.567H43.6775C45.9931 47.751 46.005 51.4152 43.6759 53.6101H42.0502ZM17.3189 53.6101C17.876 52.7902 17.7263 51.6814 16.9661 51.0367C17.265 50.7833 17.4806 50.4389 17.5839 50.0494H42.5194C42.4056 51.4044 41.7956 52.673 40.8012 53.6101H17.3189ZM10.8883 47.8585L15.6274 45.567H15.7255C16.2811 45.5756 16.7312 46.0291 16.7312 46.5872C16.7312 47.1504 16.2729 47.6088 15.7099 47.6088C15.4548 47.6088 15.2484 47.8154 15.2484 48.0703C15.2484 48.3252 15.4548 48.5318 15.7099 48.5318C16.2729 48.5318 16.7312 48.9902 16.7312 49.5536C16.7312 50.117 16.2729 50.5752 15.7099 50.5752C15.4548 50.5752 15.2484 50.7818 15.2484 51.0367C15.2484 51.2916 15.4548 51.4983 15.7099 51.4983C16.2729 51.4983 16.7312 51.9566 16.7312 52.52C16.7312 53.0834 16.2729 53.5416 15.7099 53.5416C15.6538 53.5416 15.6015 53.5552 15.5518 53.5735L10.8881 51.3149C11.3007 50.2107 11.3158 49.003 10.8883 47.8585ZM40.8028 45.567C41.7963 46.504 42.4058 47.772 42.5194 49.1263H17.6065C17.5122 48.7074 17.283 48.339 16.9661 48.0703C17.6782 47.4665 17.8871 46.4193 17.358 45.567H40.8028ZM10.057 48.2605C10.3547 49.1138 10.3548 50.059 10.057 50.9125L7.31613 49.5865L10.057 48.2605ZM51.5522 53.6101H47.7996C49.6873 51.2438 49.6898 47.9364 47.8009 45.567H51.5513C53.8574 47.7249 53.8616 51.4277 51.5522 53.6101Z" fill="#188BFA"/>
</svg>
