<svg width="60" height="60" viewBox="0 0 60 60" fill="none" xmlns="http://www.w3.org/2000/svg">
<path d="M53.6769 3H6.32308C4.49076 3 3 4.49076 3 6.32308C3 12.5675 3 48.972 3 56.5846C3 56.814 3.18599 57 3.41538 57H56.5846C56.814 57 57 56.814 57 56.5846C57 49.8912 57 12.0167 57 6.32308C57 4.49076 55.5092 3 53.6769 3ZM3.83077 6.32308C3.83077 4.94874 4.94874 3.83077 6.32308 3.83077H53.6769C55.0513 3.83077 56.1692 4.94874 56.1692 6.32308V12.3808H3.83077V6.32308ZM56.1692 56.1692H3.83077V13.2116H56.1692V56.1692Z" fill="#188BFA"/>
<path d="M52.4109 6.00708C51.2538 6.00708 50.3125 6.94839 50.3125 8.1055C50.3125 9.26262 51.2538 10.2041 52.4109 10.2041C53.568 10.2041 54.5095 9.26262 54.5095 8.1055C54.5095 6.94839 53.568 6.00708 52.4109 6.00708ZM52.4109 9.37336C51.712 9.37336 51.1433 8.80464 51.1433 8.1055C51.1433 7.40657 51.712 6.83785 52.4109 6.83785C53.1101 6.83785 53.6788 7.40657 53.6788 8.1055C53.6788 8.80464 53.1101 9.37336 52.4109 9.37336Z" fill="#188BFA"/>
<path d="M45.9404 6.00708C44.7833 6.00708 43.8418 6.94839 43.8418 8.1055C43.8418 9.26262 44.7833 10.2041 45.9404 10.2041C47.0975 10.2041 48.039 9.26262 48.039 8.1055C48.039 6.94839 47.0975 6.00708 45.9404 6.00708ZM45.9404 9.37336C45.2413 9.37336 44.6726 8.80464 44.6726 8.1055C44.6726 7.40657 45.2413 6.83785 45.9404 6.83785C46.6396 6.83785 47.2083 7.40657 47.2083 8.1055C47.2083 8.80464 46.6396 9.37336 45.9404 9.37336Z" fill="#188BFA"/>
<path d="M39.4695 6.00708C38.3124 6.00708 37.3711 6.94839 37.3711 8.1055C37.3711 9.26262 38.3124 10.2041 39.4695 10.2041C40.6266 10.2041 41.5681 9.26262 41.5681 8.1055C41.5681 6.94839 40.6266 6.00708 39.4695 6.00708ZM39.4695 9.37336C38.7706 9.37336 38.2019 8.80464 38.2019 8.1055C38.2019 7.40657 38.7706 6.83785 39.4695 6.83785C40.1687 6.83785 40.7374 7.40657 40.7374 8.1055C40.7374 8.80464 40.1687 9.37336 39.4695 9.37336Z" fill="#188BFA"/>
<path d="M35.2932 7.69019H5.90757C5.67818 7.69019 5.49219 7.87618 5.49219 8.10557C5.49219 8.33496 5.67818 8.52095 5.90757 8.52095H35.2932C35.5226 8.52095 35.7086 8.33496 35.7086 8.10557C35.7086 7.87618 35.5226 7.69019 35.2932 7.69019Z" fill="#188BFA"/>
<path d="M7.66839 48.409C7.75804 48.4528 16.7359 52.7862 26.6461 52.7862C31.2941 52.7862 37.3717 52.2521 41.6172 50.4212C42.3592 51.2321 43.4449 51.7116 44.5912 51.7116C46.5821 51.7116 51.7732 48.7345 52.3585 48.3952C52.4867 48.3208 52.5656 48.1839 52.5656 48.0356C52.5656 47.8875 52.4867 47.7506 52.3583 47.6764C51.773 47.3373 46.5821 44.3639 44.5912 44.3639C43.4416 44.3639 42.3555 44.8434 41.6162 45.6544C39.7121 44.8423 37.5635 44.4535 36.9092 44.2957C33.2546 43.5669 29.9005 43.2893 26.6461 43.2893C16.7361 43.2893 7.75804 47.6188 7.66859 47.6626C7.52601 47.7322 7.43555 47.877 7.43555 48.0358C7.43555 48.1944 7.52601 48.3392 7.66839 48.409ZM44.5912 45.1946C45.915 45.1946 49.446 47.0024 51.3073 48.036C49.4462 49.0706 45.915 50.8808 44.5912 50.8808C42.1137 50.8808 40.6203 48.301 42.062 46.4075C42.639 45.6482 43.5846 45.1946 44.5912 45.1946ZM41.1146 49.7347C40.0228 50.1894 38.7247 50.5859 37.2435 50.9173V45.2129C38.7691 45.5388 40.0895 45.924 41.1137 46.342C40.5088 47.4308 40.5416 48.7106 41.1146 49.7347ZM36.4127 45.045V51.0924C35.821 51.2094 35.2016 51.3159 34.5629 51.4106V44.7298C35.2521 44.8357 35.7384 44.9152 36.4127 45.045ZM33.7322 44.6071V51.5258C25.2239 52.6251 17.1938 51.637 8.8614 48.036C17.7687 44.1903 25.8653 43.4952 33.7322 44.6071Z" fill="#188BFA"/>
<path d="M17.6009 46.2434C16.6105 46.2434 15.8047 47.0474 15.8047 48.0358C15.8047 49.0264 16.6105 49.8322 17.6009 49.8322C18.5893 49.8322 19.3933 49.0264 19.3933 48.0358C19.3933 47.0474 18.5893 46.2434 17.6009 46.2434ZM16.6355 48.0358C16.6355 46.7657 18.5625 46.762 18.5625 48.0358C18.5625 49.3165 16.6355 49.3096 16.6355 48.0358Z" fill="#188BFA"/>
<path d="M8.56242 28.1092C11.6504 28.471 14.1565 33.5366 14.1565 36.6507C14.1565 36.8801 14.3425 37.0661 14.5719 37.0661H17.9459C18.1753 37.0661 18.3613 36.8801 18.3613 36.6507C18.3613 36.4213 18.1753 36.2353 17.9459 36.2353H14.9753C14.805 33.2327 12.8489 29.0483 10.0463 27.6966C12.8489 26.345 14.805 22.1605 14.9753 19.1579H17.9459C18.1753 19.1579 18.3613 18.9719 18.3613 18.7425C18.3613 18.5131 18.1753 18.3271 17.9459 18.3271H14.5719C14.3425 18.3271 14.1565 18.5131 14.1565 18.7425C14.1565 21.8567 11.6504 26.9222 8.56242 27.2841C8.35311 27.3086 8.19531 27.4859 8.19531 27.6966C8.19531 27.9074 8.35311 28.0846 8.56242 28.1092Z" fill="#188BFA"/>
<path d="M44.1791 36.2353H41.2084C40.979 36.2353 40.793 36.4213 40.793 36.6507C40.793 36.8801 40.979 37.0661 41.2084 37.0661H44.5825C44.8119 37.0661 44.9979 36.8801 44.9979 36.6507C44.9979 33.5366 47.504 28.471 50.592 28.1092C50.8013 28.0846 50.9591 27.9074 50.9591 27.6966C50.9591 27.4859 50.8013 27.3086 50.592 27.2841C47.504 26.9222 44.9979 21.8567 44.9979 18.7425C44.9979 18.5131 44.8119 18.3271 44.5825 18.3271H41.2084C40.979 18.3271 40.793 18.5131 40.793 18.7425C40.793 18.9719 40.979 19.1579 41.2084 19.1579H44.1791C44.3495 22.1605 46.3055 26.345 49.1082 27.6966C46.3055 29.0483 44.3495 33.2327 44.1791 36.2353Z" fill="#188BFA"/>
<path d="M22.8666 29.3458C22.6372 29.3458 22.4512 29.5318 22.4512 29.7611C22.4512 29.9905 22.6372 30.1765 22.8666 30.1765H26.5653L25.6471 36.0795C25.6081 36.33 25.8011 36.5588 26.0582 36.5588C26.7338 36.5588 26.4043 35.7526 27.4062 30.1765H31.5451C30.867 35.564 30.1791 36.5588 31.038 36.5588C31.7135 36.5588 31.384 35.7526 32.386 30.1765H36.2881C36.5175 30.1765 36.7034 29.9905 36.7034 29.7611C36.7034 29.5318 36.5175 29.3458 36.2881 29.3458H32.5152L33.1014 25.5777H36.2881C36.5175 25.5777 36.7034 25.3917 36.7034 25.1623C36.7034 24.9329 36.5175 24.7469 36.2881 24.7469H33.2306C33.8382 19.8259 34.48 18.9556 33.7292 18.8386C32.9667 18.7227 33.3133 19.8147 32.3897 24.7469H28.2508L29.0961 19.3131C29.1807 18.7697 28.36 18.6428 28.2751 19.1853L27.4099 24.7469H22.8666C22.6372 24.7469 22.4512 24.9329 22.4512 25.1623C22.4512 25.3917 22.6372 25.5777 22.8666 25.5777H27.2807L26.6946 29.3458H22.8666ZM28.1216 25.5777H32.2604L31.6743 29.3458H27.5355L28.1216 25.5777Z" fill="#188BFA"/>
</svg>
