<svg width="60" height="60" viewBox="0 0 60 60" fill="none" xmlns="http://www.w3.org/2000/svg">
<path d="M59.5385 4.15381H0.461538C0.20643 4.15381 0 4.36046 0 4.61535V40.0384V46.9615C0 47.2164 0.20643 47.423 0.461538 47.423H21.5171L18.6778 55.3075H16.3927C16.1376 55.3075 15.9312 55.5142 15.9312 55.769C15.9312 56.0239 16.1376 56.2306 16.3927 56.2306H19.002H37.8606H40.4698C40.7249 56.2306 40.9313 56.0239 40.9313 55.769C40.9313 55.5142 40.7249 55.3075 40.4698 55.3075H38.1848L35.3454 47.423H59.5385C59.7936 47.423 60 47.2164 60 46.9615V40.0384V4.61535C60 4.36046 59.7936 4.15381 59.5385 4.15381ZM0.923077 5.07689H59.0769V39.5769H0.923077V5.07689ZM37.2039 55.3075H19.6587L22.4982 47.423H34.3643L37.2039 55.3075ZM59.0769 46.5H34.6889H22.1737H0.923077V40.5H59.0769V46.5Z" fill="#C4C4C4"/>
<path d="M55.2979 45.4328C56.3634 45.4328 57.2306 44.5658 57.2306 43.5001C57.2306 42.4343 56.3634 41.5674 55.2979 41.5674C54.2324 41.5674 53.3652 42.4343 53.3652 43.5001C53.3652 44.5658 54.2324 45.4328 55.2979 45.4328ZM55.2979 42.4905C55.8546 42.4905 56.3075 42.9434 56.3075 43.5001C56.3075 44.0567 55.8546 44.5097 55.2979 44.5097C54.7413 44.5097 54.2883 44.0567 54.2883 43.5001C54.2883 42.9434 54.7413 42.4905 55.2979 42.4905Z" fill="#C4C4C4"/>
<path d="M12.7548 15.9285C12.6313 15.8318 12.4668 15.8045 12.3203 15.8557C3.94121 18.9275 3.02962 18.6462 3.2608 19.4387C4.4791 23.625 8.37423 26.5488 12.7327 26.5488C15.8373 26.5488 18.7012 25.1225 20.5901 22.6356C21.116 21.9418 20.0071 21.8356 12.7548 15.9285ZM12.7327 25.6257C8.92907 25.6257 5.51486 23.1688 4.28033 19.5994L12.3834 16.8101L19.571 22.4328C17.8624 24.4678 15.3951 25.6257 12.7327 25.6257Z" fill="#C4C4C4"/>
<path d="M11.4904 14.1693C11.677 14.1053 11.8019 13.9299 11.8019 13.733V7.38456C11.8019 7.25024 11.7433 7.12269 11.6419 7.03502C11.5405 6.94736 11.4053 6.90792 11.2723 6.92798C3.42751 8.09584 2.00315 16.9502 3.3351 16.9502C3.48067 16.9502 2.98709 17.0869 11.4904 14.1693ZM10.8788 7.93602V13.4037L3.8345 15.8286C4.20049 11.9355 7.04409 8.74055 10.8788 7.93602Z" fill="#C4C4C4"/>
<path d="M14.1945 6.9279C14.0625 6.90807 13.9263 6.94728 13.8249 7.03494C13.5218 7.29697 13.7227 7.21581 13.6649 14.0479C13.6649 14.1899 13.7303 14.324 13.8421 14.4114C21.663 20.4844 21.2714 20.3353 21.5728 20.3353C21.7671 20.3353 21.9406 20.2134 22.0069 20.0308C24.158 14.0839 20.2179 7.82474 14.1945 6.9279ZM21.3371 19.1032L14.588 13.823V7.93639C19.5437 8.98679 22.7703 14.0827 21.3371 19.1032Z" fill="#C4C4C4"/>
<path d="M17.8263 11.0169C17.4705 10.5194 16.7206 11.0572 17.0754 11.5532C17.1422 11.6271 17.4607 12.2977 17.9331 11.9605C18.4263 11.6077 17.8578 11.0966 17.8263 11.0169Z" fill="#C4C4C4"/>
<path d="M16.3473 9.66702C16.291 9.61905 15.9741 8.91387 15.4896 9.25957C14.9961 9.61197 15.5649 10.1237 15.5964 10.2034C15.6861 10.3296 15.828 10.3967 15.9723 10.3967C16.3415 10.3967 16.5676 9.97539 16.3473 9.66702Z" fill="#C4C4C4"/>
<path d="M16.5413 12.2378C16.1887 11.7418 15.4345 12.276 15.7904 12.7742C15.9492 12.9499 16.0331 13.2675 16.3804 13.2675C16.7496 13.2675 16.9757 12.8462 16.7554 12.5378L16.5413 12.2378Z" fill="#C4C4C4"/>
<path d="M19.2819 13.6736C19.6271 14.1593 20.392 13.64 20.0328 13.1373C19.9741 13.0871 19.6595 12.3839 19.1751 12.7298C18.6816 13.0822 19.2505 13.594 19.2819 13.6736Z" fill="#C4C4C4"/>
<path d="M18.5101 13.9942C18.1574 13.4981 17.4032 14.0323 17.7592 14.5305C17.9179 14.7062 18.0019 15.0239 18.3492 15.0239C18.7183 15.0239 18.9445 14.6025 18.7242 14.2941L18.5101 13.9942Z" fill="#C4C4C4"/>
<path d="M19.7396 16.2602C19.7966 16.309 20.1129 17.0135 20.5973 16.6677C21.0908 16.3153 20.522 15.8036 20.4905 15.7239C20.1383 15.2274 19.3836 15.762 19.7396 16.2602Z" fill="#C4C4C4"/>
<path d="M53.9995 35.8846H52.2737V21.6322C52.2737 21.3773 52.0673 21.1706 51.8122 21.1706H48.563C48.3078 21.1706 48.1014 21.3773 48.1014 21.6322V35.8846H45.3047V27.1706C45.3047 26.9157 45.0983 26.7091 44.8431 26.7091H41.5939C41.3388 26.7091 41.1324 26.9157 41.1324 27.1706V35.8846H38.3352V19.786C38.3352 19.5311 38.1288 19.3245 37.8736 19.3245H34.6244C34.3693 19.3245 34.1629 19.5311 34.1629 19.786V35.8846H31.3661V25.3245C31.3661 25.0696 31.1597 24.8629 30.9046 24.8629H27.6553C27.4002 24.8629 27.1938 25.0696 27.1938 25.3245V35.8846H25.4694C25.2142 35.8846 25.0078 36.0913 25.0078 36.3462C25.0078 36.6011 25.2142 36.8077 25.4694 36.8077H27.6553H30.9046H34.6244H37.8736H41.5939H44.8431H48.563H51.8122H53.9995C54.2547 36.8077 54.4611 36.6011 54.4611 36.3462C54.4611 36.0913 54.2547 35.8846 53.9995 35.8846ZM28.1169 35.8846V25.786H30.4431V35.8846H28.1169ZM35.0859 35.8846V20.2475H37.4121V35.8846H35.0859ZM42.0554 35.8846V27.6322H44.3816V35.8846H42.0554ZM49.0245 35.8846V22.0937H51.3507V35.8846H49.0245Z" fill="#C4C4C4"/>
<path d="M29.2806 21.1706C31.0743 21.1706 32.1452 19.1716 31.1675 17.6797L35.0193 13.8275C35.6492 14.2416 36.4663 14.3291 37.211 13.9794L41.5222 19.7069C40.249 21.1607 41.2856 23.4461 43.2187 23.4461C44.9318 23.4461 46.0381 21.5933 45.179 20.0785L48.8359 16.8562C50.3137 17.9642 52.445 16.911 52.445 15.0507C52.445 13.8063 51.4327 12.7938 50.1882 12.7938C48.4752 12.7938 47.3688 14.6467 48.228 16.1614L44.571 19.3838C43.9286 18.9022 43.05 18.7762 42.26 19.1521L37.9495 13.4254C39.2261 11.9603 38.1857 9.68311 36.2542 9.68311C35.0075 9.68311 33.9929 10.6954 33.9929 11.9399C33.9929 12.3835 34.1273 12.8154 34.3651 13.1764L30.5165 17.0254C29.0248 16.0421 27.0234 17.1155 27.0234 18.9139C27.0234 20.1583 28.0362 21.1706 29.2806 21.1706ZM50.1882 13.7168C51.9533 13.7168 51.9516 16.3847 50.1882 16.3847C48.4678 16.3847 48.4044 13.7168 50.1882 13.7168ZM43.2187 22.523C42.4832 22.523 41.8851 21.9247 41.8851 21.1891C41.8851 20.4588 42.4832 19.8554 43.2187 19.8554C44.9498 19.8554 44.9966 22.523 43.2187 22.523ZM36.2542 10.6062C37.5293 10.6062 38.0779 12.2361 37.056 13.0069C36.5445 13.3941 35.7751 13.3466 35.3068 12.878C35.0584 12.6369 34.916 12.2948 34.916 11.9399C34.916 11.2045 35.5164 10.6062 36.2542 10.6062ZM30.6143 18.9139C30.6143 19.6492 30.0162 20.2476 29.2806 20.2476C28.5451 20.2476 27.9465 19.6492 27.9465 18.9139C27.9465 17.1366 30.6143 17.1661 30.6143 18.9139Z" fill="#C4C4C4"/>
</svg>
