<svg width="60" height="60" viewBox="0 0 60 60" fill="none" xmlns="http://www.w3.org/2000/svg">
<path d="M16.9238 26.2202C17.1789 26.2202 17.3854 26.0135 17.3854 25.7587C17.3854 25.5038 17.1789 25.2971 16.9238 25.2971C14.5234 25.4366 13.3672 24.957 13.3672 25.7587C13.3672 26.5601 14.5292 26.0811 16.9238 26.2202Z" fill="#188BFA"/>
<path d="M17.3858 28.1852C17.3858 27.9303 17.1794 27.7236 16.9243 27.7236H12.7037C12.4486 27.7236 12.2422 27.9303 12.2422 28.1852C12.2422 28.4401 12.4486 28.6467 12.7037 28.6467H16.9243C17.1794 28.6467 17.3858 28.4401 17.3858 28.1852Z" fill="#188BFA"/>
<path d="M17.3858 30.6114C17.3858 30.3566 17.1793 30.1499 16.9242 30.1499H13.8291C13.2181 30.1499 13.2187 31.073 13.8291 31.073C16.2295 30.9335 17.3858 31.4131 17.3858 30.6114Z" fill="#188BFA"/>
<path d="M46.4557 28.1851C46.4557 25.9358 44.74 24.0799 42.5485 23.8574C42.5499 21.0308 42.5554 17.7778 42.5673 14.032C42.5673 13.672 42.1715 13.4487 41.8615 13.6403C41.2958 13.9115 29.0703 22.4698 19.6959 22.3719C13.5639 22.3721 20.971 22.3725 14.7055 22.3719C11.4968 22.3719 8.88672 24.9798 8.88672 28.1851C8.88672 29.741 9.49249 31.2002 10.5909 32.2921C12.7642 34.478 15.3415 33.911 15.9566 33.9983L17.5694 43.8425C17.797 45.3414 19.0608 46.4294 20.5748 46.4294C22.2474 46.4294 23.6082 45.0687 23.6082 43.3961C23.6082 43.2532 23.5956 43.1038 23.5739 42.9386L22.1322 34.1723C32.3695 35.4966 41.5192 43.1887 42.3298 42.736C42.6566 42.5545 42.5876 43.2157 42.5578 32.5552C43.9532 32.4496 46.4557 30.995 46.4557 28.1851ZM9.8098 28.1851C9.8098 25.4887 12.0062 23.295 14.7055 23.295H19.2299V33.0752C19.1391 33.0752 14.5767 33.0752 14.7055 33.0752C12.0017 33.0752 9.8098 30.8882 9.8098 28.1851ZM22.6851 43.3961C22.6851 44.5596 21.7386 45.5063 20.5748 45.5063C19.5206 45.5063 18.6403 44.7482 18.4812 43.6985L16.892 33.9983C19.8374 34.0159 19.9769 33.9554 21.1795 34.0674L22.6608 43.0724C22.6752 43.1817 22.6851 43.2915 22.6851 43.3961ZM41.6442 41.5021C41.099 41.2178 29.4115 33.2673 20.1529 33.0779V23.2921C29.7035 23.0828 41.0144 15.1834 41.6442 14.8638C41.6132 26.7378 41.6395 26.3627 41.6442 26.5548V41.5021ZM42.5673 31.5813V24.7889C46.5027 25.3214 46.4975 31.0495 42.5673 31.5813Z" fill="#188BFA"/>
<path d="M46.4554 31.6685C45.8035 32.045 46.7061 32.8246 47.154 33.8015C47.4601 34.3308 48.2589 33.8681 47.9536 33.34C47.3617 32.5073 47.1136 31.2866 46.4554 31.6685Z" fill="#188BFA"/>
<path d="M48.5491 30.0344C48.0205 29.7297 47.5581 30.5282 48.0875 30.834C49.6284 31.6995 49.6033 31.7634 49.8206 31.7634C49.9801 31.7634 50.1352 31.6807 50.2208 31.5326C50.6021 30.8731 49.391 30.6322 48.5491 30.0344Z" fill="#188BFA"/>
<path d="M50.6519 27.7413C49.6308 27.8374 48.4551 27.4407 48.4551 28.2029C48.4551 28.9637 49.6159 28.567 50.6519 28.6644C50.907 28.6644 51.1134 28.4577 51.1134 28.2029C51.1134 27.948 50.907 27.7413 50.6519 27.7413Z" fill="#188BFA"/>
<path d="M48.3193 26.4325C48.5365 26.4325 48.5151 26.3666 50.0523 25.5033C50.5826 25.1971 50.1178 24.3987 49.5908 24.7038L48.0881 25.5712C47.6801 25.8068 47.8483 26.4325 48.3193 26.4325Z" fill="#188BFA"/>
<path d="M47.1525 22.6039C46.72 23.5472 45.7959 24.3571 46.4538 24.7371C47.1057 25.1136 47.332 23.9373 47.952 23.0654C48.2578 22.5364 47.4575 22.0752 47.1525 22.6039Z" fill="#188BFA"/>
<path d="M30 0C13.4581 0 0 13.4579 0 30C0 46.5421 13.4581 60 30 60C46.5419 60 60 46.5421 60 30C60 13.4579 46.5419 0 30 0ZM30 59.0769C13.9669 59.0769 0.923077 46.0331 0.923077 30C0.923077 13.9669 13.9669 0.923077 30 0.923077C46.0331 0.923077 59.0769 13.9669 59.0769 30C59.0769 46.0331 46.0331 59.0769 30 59.0769Z" fill="#188BFA"/>
<path d="M41.5933 51.4803C26.6812 59.5629 7.88883 50.1386 5.77183 33.0131C5.69605 32.4048 4.78064 32.5226 4.85596 33.1263C7.04542 50.8412 26.5176 60.7008 42.0332 52.2921C42.2573 52.1706 42.3406 51.8905 42.2189 51.6662C42.0977 51.4422 41.8169 51.3588 41.5933 51.4803Z" fill="#188BFA"/>
<path d="M53.6099 20.8086C49.0974 9.25499 36.4192 2.24322 23.7938 5.43269C23.5468 5.49534 23.3972 5.74616 23.4594 5.99338C23.522 6.24038 23.7744 6.39002 24.0201 6.32782C36.152 3.26179 48.3904 9.98152 52.75 21.1444C52.8212 21.3267 52.9956 21.4382 53.1799 21.4382C53.2358 21.4382 53.2926 21.4279 53.3481 21.4065C53.5851 21.3136 53.7028 21.0461 53.6099 20.8086Z" fill="#188BFA"/>
<path d="M39.6946 37.1964C36.8135 35.4931 33.91 34.0648 31.0655 32.9513C30.4982 32.7277 30.1599 33.5882 30.7293 33.8108C38.3918 36.8103 39.3141 38.7478 39.8568 37.8286C39.9866 37.6093 39.9141 37.3262 39.6946 37.1964Z" fill="#188BFA"/>
</svg>
