<svg width="55" height="60" viewBox="0 0 55 60" fill="none" xmlns="http://www.w3.org/2000/svg">
<path d="M46.6129 22.1224H48.5529C48.8636 23.4701 50.0707 24.4788 51.5115 24.4788C53.187 24.4788 54.55 23.1158 54.55 21.4405C54.55 19.7647 53.187 18.4017 51.5115 18.4017C49.9173 18.4017 48.6088 19.6363 48.4852 21.1994H46.7448C47.2088 17.3035 46.4631 13.2338 44.3736 9.56444C39.2055 0.48872 27.6172 -2.68977 18.5401 2.47775C11.7931 6.32037 8.30858 13.7104 9.08601 20.979H6.80776C6.58431 19.522 5.32635 18.4017 3.80807 18.4017C2.13251 18.4017 0.769531 19.7647 0.769531 21.4405C0.769531 23.1158 2.13251 24.4788 3.80807 24.4788C5.32632 24.4788 6.58423 23.3585 6.80773 21.902H9.20785C9.55327 24.0977 10.29 26.2682 11.4534 28.3113C16.2695 36.768 26.5675 40.2095 35.4901 36.2929L38.6448 41.8327C37.1296 42.841 35.9067 43.0187 36.2949 43.7021L38.7369 47.9907L44.1422 57.4829C45.0681 59.1079 46.753 59.9956 48.4696 59.9956C49.3208 59.9956 50.1616 59.7752 50.9215 59.3425C53.3031 57.9859 54.1372 54.9444 52.7809 52.5632L47.3757 43.0711C45.0639 39.0984 44.9109 38.2621 44.3042 38.6098L42.128 39.8491L38.9737 34.3099C43.1809 31.2942 45.8067 26.8757 46.6129 22.1224ZM51.5115 19.3248C52.678 19.3248 53.627 20.274 53.627 21.4405C53.627 22.607 52.678 23.5557 51.5115 23.5557C50.345 23.5557 49.396 22.607 49.396 21.4405C49.396 20.274 50.345 19.3248 51.5115 19.3248ZM3.80807 23.5557C2.6416 23.5557 1.69261 22.607 1.69261 21.4405C1.69261 20.274 2.6416 19.3248 3.80807 19.3248C4.97453 19.3248 5.92353 20.274 5.92353 21.4405C5.92353 22.607 4.97453 23.5557 3.80807 23.5557ZM18.9969 3.28004C21.8042 1.68133 24.8628 0.922313 27.8831 0.922313C34.1524 0.922313 40.2534 4.19455 43.5714 10.0215C45.5787 13.5463 46.2843 17.4602 45.8154 21.1994H43.9434C44.4233 17.7746 43.805 14.1735 41.9623 10.9373C39.0932 5.89918 33.7026 2.76937 27.8942 2.76937C25.1089 2.76937 22.3492 3.50224 19.9135 4.88911C16.1619 7.02598 13.4666 10.4965 12.324 14.6612C11.7506 16.7521 11.6035 18.8919 11.8686 20.979H10.0128C9.23058 14.0329 12.5479 6.95274 18.9969 3.28004ZM40.2408 21.1994L36.8207 14.3935C36.7452 14.2429 36.5935 14.146 36.4254 14.1397C36.2501 14.1199 36.0989 14.219 36.0123 14.3637L33.1405 19.1567L28.8963 10.6444C28.8145 10.4803 28.648 10.3762 28.46 10.3893C28.277 10.3987 28.1166 10.5155 28.0517 10.6867L23.2355 23.3935L18.9658 15.0524C18.8858 14.8965 18.7236 14.7964 18.5496 14.8014C18.3742 14.8036 18.2154 14.9046 18.1392 15.0623L15.2866 20.979H12.8024C12.5317 18.9741 12.6629 16.9159 13.2142 14.9055C14.2914 10.9784 16.833 7.70612 20.3703 5.69139C22.6669 4.38385 25.2687 3.69245 27.8942 3.69245C33.3718 3.69245 38.455 6.64377 41.16 11.3944C42.9208 14.4865 43.4952 17.9316 43.0084 21.1994H40.2408ZM42.8431 22.1224C39.4355 38.1325 16.2021 38.2045 12.9581 21.902C15.3705 21.8193 15.7729 22.0951 15.9922 21.6411L18.5674 16.3C23.0425 24.8317 22.7649 25.0194 23.3241 24.9899C23.8966 24.9588 23.5172 24.9521 28.5409 12.0006C32.8404 20.4215 32.5668 20.5584 33.0856 20.5778C33.5814 20.6038 33.4278 20.2981 36.3727 15.5581C39.6334 21.8368 39.4193 22.1224 39.9561 22.1224H42.8431ZM50.4647 58.5403C48.5257 59.6445 46.0488 58.9653 44.9445 57.0258L39.7675 47.9348L41.7134 46.8267L46.8019 43.9292L51.9787 53.0203C53.0832 54.9593 52.4039 57.4355 50.4647 58.5403ZM44.3599 39.6406L46.3451 43.1269L44.3992 44.235L39.3107 47.1325L37.3255 43.6462L39.4871 42.4153C39.4925 42.4125 39.4985 42.4116 39.5038 42.4085L42.1847 40.8819C42.1882 40.8799 42.1903 40.8763 42.1937 40.874L44.3599 39.6406ZM39.4471 41.3759L36.3308 35.9037C37.0206 35.5624 37.5558 35.2578 38.2097 34.8337L41.3258 40.3059L39.4471 41.3759ZM12.2557 27.8543C11.1745 25.9556 10.4781 23.9415 10.1401 21.902H12.0162C12.343 23.6493 12.9596 25.3489 13.8648 26.9384C21.272 39.9466 40.8609 36.7415 43.7855 22.1224H45.6752C42.7997 38.2154 20.8099 42.877 12.2557 27.8543Z" fill="#188BFA"/>
<path d="M43.6993 42.6793C43.7843 42.8289 43.9402 42.9128 44.1009 42.9128C44.1782 42.9128 44.2567 42.8934 44.3288 42.8524C44.5503 42.7262 44.6276 42.4445 44.5016 42.2232L44.1967 41.6873C44.0707 41.4655 43.7893 41.3884 43.5673 41.5142C43.3457 41.6404 43.2684 41.9221 43.3944 42.1434L43.6993 42.6793Z" fill="#188BFA"/>
<path d="M42.0832 42.8904C41.957 42.6691 41.6746 42.5916 41.4538 42.7178C41.2322 42.844 41.1552 43.1261 41.2814 43.3474L41.5865 43.8829C41.6715 44.0321 41.8274 44.1159 41.9879 44.1159C42.0654 44.1159 42.1438 44.0965 42.2159 44.0555C42.4375 43.9293 42.5145 43.6472 42.3883 43.4259L42.0832 42.8904Z" fill="#188BFA"/>
<path d="M39.9701 44.0932C39.8437 43.8723 39.562 43.7944 39.3407 43.9206C39.1192 44.0468 39.0419 44.3285 39.1679 44.5502L39.473 45.0861C39.5582 45.2353 39.7141 45.3191 39.8746 45.3191C39.9519 45.3191 40.0305 45.2998 40.1024 45.2588C40.324 45.1325 40.4013 44.8508 40.2753 44.6291L39.9701 44.0932Z" fill="#188BFA"/>
<path d="M46.1528 55.685C46.7893 56.802 48.2144 57.1909 49.3334 56.554C49.8744 56.2461 50.263 55.7454 50.427 55.1446C50.5911 54.5446 50.512 53.9172 50.2048 53.3773C49.8965 52.836 49.3967 52.4465 48.797 52.2811C48.1969 52.1157 47.5677 52.1937 47.0263 52.502C45.9081 53.1388 45.5162 54.5663 46.1528 55.685ZM48.1752 53.1195C49.0986 53.1195 49.7834 53.9993 49.5366 54.9012C49.3304 55.6558 48.554 56.0904 47.8054 55.8864C46.2487 55.4596 46.54 53.1195 48.1752 53.1195Z" fill="#188BFA"/>
</svg>
