<svg width="60" height="60" viewBox="0 0 60 60" fill="none" xmlns="http://www.w3.org/2000/svg">
<path d="M16.6361 14.7975C19.5378 14.7975 21.7218 10.6775 21.7218 8.0056C21.7218 5.20122 19.4403 2.91968 16.6361 2.91968C13.8342 2.91968 11.5547 5.20122 11.5547 8.0056C11.5547 10.6775 13.7366 14.7975 16.6361 14.7975ZM16.6361 3.84275C18.9314 3.84275 20.7987 5.71009 20.7987 8.0056C20.7987 10.2696 18.8938 13.8744 16.6361 13.8744C14.3809 13.8744 12.4778 10.2696 12.4778 8.0056C12.4778 5.71009 14.3433 3.84275 16.6361 3.84275Z" fill="#C4C4C4"/>
<path d="M27.4085 24.978C27.6634 24.978 27.8701 24.7715 27.8701 24.5164C27.8242 24.2463 28.3208 19.9366 24.4295 16.8186C22.9289 15.6167 21.0966 15.0144 20.8262 15.0144C19.864 15.0619 19.552 14.8932 19.3249 15.2028C17.7041 17.4115 15.698 17.5802 13.9534 15.2028C13.7252 14.8918 13.394 15.0609 12.4521 15.0144C11.8636 15.0144 9.45228 16.0267 7.83308 17.7642C6.2693 19.4431 5.4082 21.5931 5.4082 23.8183V24.5164C5.4082 24.7715 5.61486 24.978 5.86974 24.978H9.58976H23.6883H27.4085ZM26.947 24.0549H24.1498V19.6888L25.0858 18.7529C27.1186 21.1995 26.9364 23.9928 26.947 24.0549ZM6.33128 23.8183C6.33128 21.9825 6.98888 20.2012 8.1923 18.7531L9.12822 19.6888V24.0549H6.33128V23.8183ZM23.2267 24.0549H10.0513C9.99165 18.1769 10.4963 19.8455 8.81993 18.0752C9.83785 17.0842 11.0952 16.3605 12.5185 15.9374H13.3521C15.3203 18.4522 17.9056 18.5191 19.9261 15.9374H20.7597C22.1413 16.3481 23.4138 17.0572 24.4581 18.0752C22.5244 20.1165 23.4933 18.0795 23.2267 24.0549Z" fill="#C4C4C4"/>
<path d="M43.3588 41.52C46.2605 41.52 48.4445 37.3999 48.4445 34.7281C48.4445 31.9241 46.1629 29.6426 43.3588 29.6426C40.5569 29.6426 38.2773 31.9241 38.2773 34.7281C38.2773 37.3999 40.4593 41.52 43.3588 41.52ZM43.3588 30.5657C45.6541 30.5657 47.5214 32.433 47.5214 34.7281C47.5214 36.992 45.6164 40.5969 43.3588 40.5969C41.1036 40.5969 39.2004 36.992 39.2004 34.7281C39.2004 32.433 41.0659 30.5657 43.3588 30.5657Z" fill="#C4C4C4"/>
<path d="M45.7179 46.6176C46.1499 46.1856 45.4969 45.5333 45.0653 45.9649L43.3606 47.6696C42.928 47.3378 42.4281 46.3861 41.9262 46.888C41.7459 47.0683 41.7459 47.3604 41.9262 47.5407C43.6965 49.2124 43.9486 48.2888 45.7179 46.6176Z" fill="#C4C4C4"/>
<path d="M47.6765 41.7557C47.5628 41.7227 47.5805 41.7432 46.4185 41.7372C46.2716 41.7372 46.1334 41.8071 46.0464 41.9256C44.3931 44.1788 42.3868 44.2587 40.6752 41.9256C40.5882 41.8071 40.4501 41.7372 40.3031 41.7372C39.1413 41.7432 39.1565 41.7233 39.045 41.7557C34.7939 42.9891 32.1298 46.6452 32.1298 50.5411C32.1756 50.798 31.9286 51.7008 32.5913 51.7008C37.6418 51.7008 49.4851 51.7008 54.1301 51.7008C54.7926 51.7008 54.5445 50.8058 54.5916 50.5411C54.5916 46.6669 51.9611 42.9988 47.6765 41.7557ZM34.9141 45.4755L35.85 46.4116V50.7778H33.0529C33.0744 50.6515 32.8181 47.9981 34.9141 45.4755ZM35.5417 44.7976C36.5639 43.8047 37.8167 43.0834 39.2401 42.6603H40.0737C42.0413 45.1749 44.6272 45.2419 46.6477 42.6603H47.4813C48.9024 43.0827 50.1561 43.8033 51.1797 44.7976C49.2464 46.8396 50.2152 44.8021 49.9486 50.7778H36.7731C36.4672 44.7776 37.5292 46.8963 35.5417 44.7976ZM53.6686 50.7778H50.8716V46.4116L51.8075 45.4755C53.8402 47.9223 53.658 50.7157 53.6686 50.7778Z" fill="#C4C4C4"/>
<path d="M43.3618 26.7227C34.1872 26.7227 26.723 34.1866 26.723 43.361C26.723 46.2334 27.4667 49.0567 28.8766 51.547C27.9769 52.5651 26.2342 53.4377 22.9135 52.4155C22.722 52.3578 22.5133 52.4286 22.399 52.5931C22.2843 52.758 22.2895 52.978 22.4117 53.1376C22.4468 53.1835 25.9521 57.6393 32.2322 55.7256C42.8763 65.3151 60.0004 57.7226 60.0004 43.361C60.0004 34.1866 52.5364 26.7227 43.3618 26.7227ZM43.3618 59.0767C36.2831 59.0767 32.9124 54.7435 32.3471 54.7435C32.0568 54.7435 28.0513 56.502 24.3218 53.6888C27.489 54.1697 29.0916 52.8153 29.8041 51.8688C29.9166 51.7191 29.9279 51.5168 29.8325 51.3559C28.4022 48.9409 27.6461 46.1762 27.6461 43.361C27.6461 34.6954 34.696 27.6457 43.3618 27.6457C52.0273 27.6457 59.0773 34.6954 59.0773 43.361C59.0773 52.0265 52.0273 59.0767 43.3618 59.0767Z" fill="#C4C4C4"/>
<path d="M25.264 36.7878C25.4528 36.7193 25.5757 36.5367 25.5678 36.3361C25.5601 36.1356 25.4235 35.9629 25.2302 35.9089C22.9396 35.2729 21.4484 34.1776 20.8837 32.7263C28.2063 30.8058 33.2773 24.2609 33.2773 16.6388C33.2773 7.46392 25.8132 0 16.6386 0C7.46392 0 0 7.46392 0 16.6388C0 25.2489 6.6684 32.4888 15.2204 33.2127C17.7367 36.4623 20.7155 37.1438 22.7726 37.1438C24.2415 37.1438 25.2401 36.7963 25.264 36.7878ZM15.8318 32.492C15.7515 32.3851 15.6289 32.318 15.4955 32.3085C7.32397 31.7203 0.923075 24.8374 0.923075 16.6388C0.923075 7.97324 7.97301 0.923074 16.6386 0.923074C25.3043 0.923074 32.3543 7.97324 32.3543 16.6388C32.3543 23.9954 27.3526 30.2902 20.1914 31.9461C20.0706 31.9741 19.9662 32.0493 19.9015 32.1548C19.8369 32.2607 19.8175 32.3878 19.8475 32.5077C20.1379 33.6706 20.9943 35.1625 23.3302 36.2104C21.4847 36.3384 18.3975 35.9165 15.8318 32.492Z" fill="#C4C4C4"/>
</svg>
